g ____01
v 0 1.0409 0.661789 0.494118 0.494118 0.52549
v 8 1.0409 0.661789 0.494118 0.494118 0.52549
v 8 3.0409 0.661789 0.494118 0.494118 0.52549
v 0 3.0409 0.661789 0.494118 0.494118 0.52549
v 0 1.0409 3.16179 0.494118 0.494118 0.52549
v 8 1.0409 3.16179 0.494118 0.494118 0.52549
v 0 3.0409 3.16179 0.494118 0.494118 0.52549
v 8 3.0409 3.16179 0.494118 0.494118 0.52549
v 0 4 0 0.494118 0.494118 0.52549
v 0 0 0 0.494118 0.494118 0.52549
v 0 0 4 0.494118 0.494118 0.52549
v 0 4 4 0.494118 0.494118 0.52549
v 8 4 0 0.494118 0.494118 0.52549
v 8 4 4 0.494118 0.494118 0.52549
v 8 0 4 0.494118 0.494118 0.52549
v 8 0 0 0.494118 0.494118 0.52549
vn -0 -0 1
vn 0 1 0
vn 0 0 -1
vn -0 -1 -0
vn -1 0 0
vn 1 -0 -0
vn -0 -0 -1
vn 0 0 1
vn -0 1 -0
vn -0 -1 -0
vt -8.1 -1
vt -16.1 -1
vt -16.1 1
vt -8.1 1
vt 1.25 16.1
vt 1.25 8.1
vt -1.25 8.1
vt -1.25 16.1
vt -8.1 -1
vt -8.1 1
vt -16.1 1
vt -16.1 -1
vt -1.25 8.1
vt 1.25 8.1
vt 1.25 16.1
vt -1.25 16.1
vt -4 2
vt -4 -2
vt -3.33821 -0.959102
vt 0 -2
vt -0.838211 -0.959102
vt 0 2
vt -0.838211 1.0409
vt -3.33821 1.0409
vt -4 2
vt 0 2
vt -0.838211 1.0409
vt 0 -2
vt -0.838211 -0.959102
vt -4 -2
vt -3.33821 -0.959102
vt -3.33821 1.0409
vt 8 4
vt 8 0
vt 0 0
vt 0 4
vt 0 4
vt 0 0
vt 8 0
vt 8 4
vt 0 4
vt 4 4
vt 4 -4
vt -0 -4
vt 0 -4
vt -4 -4
vt -4 4
vt 0 4
f 1/1/1 2/2/1 3/3/1
f 3/3/1 4/4/1 1/1/1
f 2/5/2 1/6/2 5/7/2
f 5/7/2 6/8/2 2/5/2
f 5/9/3 7/10/3 8/11/3
f 8/11/3 6/12/3 5/9/3
f 7/13/4 4/14/4 3/15/4
f 3/15/4 8/16/4 7/13/4
f 9/17/5 10/18/5 1/19/5
f 10/18/5 11/20/5 5/21/5
f 5/21/5 1/19/5 10/18/5
f 12/22/5 7/23/5 5/21/5
f 9/17/5 4/24/5 7/23/5
f 5/21/5 11/20/5 12/22/5
f 1/19/5 4/24/5 9/17/5
f 7/23/5 12/22/5 9/17/5
f 13/25/6 14/26/6 8/27/6
f 14/26/6 15/28/6 6/29/6
f 6/29/6 8/27/6 14/26/6
f 16/30/6 2/31/6 6/29/6
f 6/29/6 15/28/6 16/30/6
f 13/25/6 3/32/6 2/31/6
f 2/31/6 16/30/6 13/25/6
f 8/27/6 3/32/6 13/25/6
f 13/33/7 16/34/7 10/35/7
f 10/35/7 9/36/7 13/33/7
f 12/37/8 11/38/8 15/39/8
f 15/39/8 14/40/8 12/37/8
f 14/41/9 13/42/9 9/43/9
f 9/43/9 12/44/9 14/41/9
f 11/45/10 10/46/10 16/47/10
f 16/47/10 15/48/10 11/45/10
