g ____01
v 0.05 0.1 1.45 0.494118 0.494118 0.52549
v 0.95 0.1 1.45 0.494118 0.494118 0.52549
v 0.9 0.05 1.4 0.494118 0.494118 0.52549
v 0.1 0.05 1.4 0.494118 0.494118 0.52549
v 0.95 0.1 0.05 0.494118 0.494118 0.52549
v 0.9 0.05 0.1 0.494118 0.494118 0.52549
v 0.1 0.05 0.1 0.494118 0.494118 0.52549
v 0.05 0.1 0.05 0.494118 0.494118 0.52549
v 0.1 0.04 1.4 0.494118 0.494118 0.52549
v 0.1 0.04 0.1 0.494118 0.494118 0.52549
v 0.9 0.04 0.1 0.494118 0.494118 0.52549
v 0.9 0.04 1.4 0.494118 0.494118 0.52549
v 0.97 0.1 1.47 0.494118 0.494118 0.52549
v 0.97 0.1 0.03 0.494118 0.494118 0.52549
v 0.03 0.1 0.03 0.494118 0.494118 0.52549
v 0.03 0.1 1.47 0.494118 0.494118 0.52549
v 1 0.07 0 0.494118 0.494118 0.52549
v 0 0.07 0 0.494118 0.494118 0.52549
v 0 0.07 1.5 0.494118 0.494118 0.52549
v 1 0.07 1.5 0.494118 0.494118 0.52549
v 1 0 0 0.494118 0.494118 0.52549
v 0 0 0 0.494118 0.494118 0.52549
v 0 0 1.5 0.494118 0.494118 0.52549
v 1 0 1.5 0.494118 0.494118 0.52549
vn -0 0.707107 -0.707107
vn -0.707107 0.707107 6.03882e-17
vn 0.707107 0.707107 -6.03882e-17
vn 6.13317e-17 0.707107 0.707107
vn 1 -0 -8.54018e-17
vn 0 1 0
vn 8.67362e-17 -0 1
vn -1 -0 8.54018e-17
vn 0 0 -1
vn 0 1 0
vn 0 0.707107 -0.707107
vn -0.707107 0.707107 -0
vn 0.707107 0.707107 -0
vn -0 0.707107 0.707107
vn -0 -0 -1
vn 0 0 1
vn -0 -1 -0
vn -1 0 0
vn 1 0 -0
vt 0.45 0
vt -0.45 -0
vt -0.4 0.0707107
vt 0.4 0.0707107
vt 0.7 0.0707107
vt -0.7 0.0707107
vt -0.65 -3.92523e-17
vt 0.65 -3.92523e-17
vt -0.7 0.0707107
vt -0.65 -6.16298e-33
vt 0.65 1.2326e-32
vt 0.7 0.0707107
vt -0.45 0.0707107
vt -0.4 -4.90654e-18
vt 0.4 -4.90654e-18
vt 0.45 0.0707107
vt 0.65 0
vt -0.65 0
vt -0.65 0.01
vt 0.65 0.01
vt 0.1 0.9
vt 0.1 0.1
vt 1.4 0.1
vt 1.4 0.9
vt 0.4 0
vt -0.4 0
vt -0.4 0.01
vt 0.4 0.01
vt 0.65 0
vt -0.65 0
vt -0.65 0.01
vt 0.65 0.01
vt -0.4 0
vt 0.4 0
vt 0.4 0.01
vt -0.4 0.01
vt -0.03 0.47
vt -0.05 0.45
vt -0.05 -0.45
vt -1.47 0.47
vt -1.45 0.45
vt -1.47 -0.47
vt -1.45 -0.45
vt -0.03 -0.47
vt -1 0
vt 0 0
vt -0.03 0.0424264
vt -0.97 0.0424264
vt 0 0
vt 0.03 0.0424264
vt 1.47 0.0424264
vt 1.5 0
vt -0 0.0424264
vt 1.5 0.0424264
vt 1.47 0
vt 0.03 0
vt 0.5 0.0424264
vt 0.47 0
vt -0.47 0
vt -0.5 0.0424264
vt 1 0
vt 0 0
vt 0 0.07
vt 1 0.07
vt 0 0
vt 1 0
vt 1 0.07
vt 0 0.07
vt 0 -0.5
vt -1.5 -0.5
vt -1.5 0.5
vt 0 0.5
vt -1.5 -0.05
vt 0 -0.05
vt 0 0.02
vt -1.5 0.02
vt -0 -0.05
vt 1.5 -0.05
vt 1.5 0.02
vt 0 0.02
f 1/1/1 2/2/1 3/3/1
f 3/3/1 4/4/1 1/1/1
f 2/5/2 5/6/2 6/7/2
f 6/7/2 3/8/2 2/5/2
f 1/9/3 4/10/3 7/11/3
f 7/11/3 8/12/3 1/9/3
f 8/13/4 7/14/4 6/15/4
f 6/15/4 5/16/4 8/13/4
f 9/17/5 10/18/5 7/19/5
f 7/19/5 4/20/5 9/17/5
f 11/21/6 10/22/6 9/23/6
f 9/23/6 12/24/6 11/21/6
f 10/25/7 11/26/7 6/27/7
f 6/27/7 7/28/7 10/25/7
f 11/29/8 12/30/8 3/31/8
f 3/31/8 6/32/8 11/29/8
f 12/33/9 9/34/9 4/35/9
f 4/35/9 3/36/9 12/33/9
f 13/37/10 2/38/10 1/39/10
f 13/37/10 14/40/10 5/41/10
f 5/41/10 2/38/10 13/37/10
f 14/40/10 15/42/10 8/43/10
f 8/43/10 5/41/10 14/40/10
f 16/44/10 1/39/10 8/43/10
f 8/43/10 15/42/10 16/44/10
f 1/39/10 16/44/10 13/37/10
f 17/45/11 18/46/11 15/47/11
f 15/47/11 14/48/11 17/45/11
f 19/49/12 16/50/12 15/51/12
f 15/51/12 18/52/12 19/49/12
f 20/53/13 17/54/13 14/55/13
f 14/55/13 13/56/13 20/53/13
f 20/57/14 13/58/14 16/59/14
f 16/59/14 19/60/14 20/57/14
f 21/61/15 22/62/15 18/63/15
f 18/63/15 17/64/15 21/61/15
f 23/65/16 24/66/16 20/67/16
f 20/67/16 19/68/16 23/65/16
f 23/69/17 22/70/17 21/71/17
f 21/71/17 24/72/17 23/69/17
f 22/73/18 23/74/18 19/75/18
f 19/75/18 18/76/18 22/73/18
f 24/77/19 21/78/19 17/79/19
f 17/79/19 20/80/19 24/77/19
